<svg width="424" height="259" viewBox="0 0 424 259" fill="none" xmlns="http://www.w3.org/2000/svg">
<path d="M67.7248 24.3964C67.7248 23.0567 67.8985 21.8252 68.2458 20.7017C68.5967 19.5747 69.0964 18.5381 69.7449 17.5918H70.8507C70.5955 17.9427 70.3563 18.375 70.133 18.8889C69.9133 19.3993 69.7201 19.961 69.5535 20.5741C69.387 21.1837 69.2558 21.8145 69.1602 22.4666C69.068 23.1187 69.0219 23.762 69.0219 24.3964C69.0219 25.2398 69.1034 26.0957 69.2665 26.964C69.4295 27.8323 69.6492 28.6386 69.9257 29.3828C70.2021 30.1271 70.5104 30.7331 70.8507 31.2009H69.7449C69.0964 30.2546 68.5967 29.2198 68.2458 28.0963C67.8985 26.9693 67.7248 25.736 67.7248 24.3964ZM73.3186 31.2009V17.5918H76.4657V18.6338H74.5094V30.159H76.4657V31.2009H73.3186ZM81.7193 29.9888C81.2728 29.9818 80.8262 29.8967 80.3797 29.7337C79.9331 29.5706 79.5256 29.296 79.157 28.9097C78.7884 28.5198 78.4925 27.9936 78.2692 27.3308C78.0459 26.6645 77.9343 25.8281 77.9343 24.8216C77.9343 23.8577 78.0247 23.0036 78.2054 22.2593C78.3862 21.5115 78.6484 20.8824 78.9922 20.3721C79.336 19.8582 79.7506 19.4684 80.2361 19.2026C80.7252 18.9368 81.2763 18.8039 81.8894 18.8039C82.499 18.8039 83.0413 18.9261 83.5162 19.1707C83.9946 19.4117 84.3844 19.7484 84.6857 20.1807C84.9869 20.6131 85.1818 21.111 85.2704 21.6745H83.9733C83.8528 21.1855 83.6189 20.7797 83.2716 20.4572C82.9243 20.1347 82.4636 19.9734 81.8894 19.9734C81.046 19.9734 80.3815 20.3402 79.8959 21.0738C79.4139 21.8074 79.1712 22.837 79.1676 24.1625H79.2527C79.4511 23.8612 79.6868 23.6043 79.9597 23.3916C80.2361 23.1754 80.5409 23.0089 80.8741 22.8919C81.2072 22.775 81.5598 22.7165 81.932 22.7165C82.5557 22.7165 83.1263 22.8724 83.6437 23.1843C84.1612 23.4926 84.5758 23.9197 84.8877 24.4655C85.1996 25.0077 85.3555 25.6297 85.3555 26.3314C85.3555 27.0048 85.2049 27.6214 84.9036 28.1814C84.6024 28.7378 84.1789 29.1808 83.6331 29.5104C83.0909 29.8365 82.4529 29.9959 81.7193 29.9888ZM81.7193 28.8193C82.1659 28.8193 82.5663 28.7077 82.9208 28.4844C83.2787 28.2611 83.5605 27.9617 83.766 27.586C83.9751 27.2103 84.0797 26.7921 84.0797 26.3314C84.0797 25.8813 83.9786 25.472 83.7766 25.1034C83.5782 24.7313 83.3035 24.4353 82.9526 24.2156C82.6053 23.9959 82.2084 23.886 81.7619 23.886C81.4252 23.886 81.1115 23.9534 80.8209 24.088C80.5303 24.2192 80.2751 24.3999 80.0554 24.6303C79.8392 24.8606 79.6691 25.1247 79.5451 25.4224C79.421 25.7165 79.359 26.0266 79.359 26.3527C79.359 26.785 79.46 27.1891 79.662 27.5647C79.8676 27.9404 80.1475 28.2434 80.5019 28.4738C80.8599 28.7041 81.2657 28.8193 81.7193 28.8193ZM88.8269 28.3515L88.7418 28.9256C88.6816 29.3297 88.5894 29.762 88.4654 30.2228C88.3449 30.6835 88.2191 31.1176 88.088 31.5252C87.9568 31.9327 87.8487 32.257 87.7637 32.498H86.8068C86.8529 32.2712 86.9131 31.9717 86.9875 31.5996C87.062 31.2275 87.1364 30.8111 87.2108 30.3503C87.2888 29.8932 87.3526 29.4253 87.4022 28.9469L87.466 28.3515H88.8269ZM95.3404 29.84V28.8831L98.934 24.9492C99.3558 24.4885 99.7031 24.088 99.976 23.7478C100.249 23.404 100.451 23.0815 100.582 22.7803C100.717 22.4755 100.784 22.1565 100.784 21.8234C100.784 21.4406 100.692 21.1093 100.508 20.8293C100.327 20.5493 100.079 20.3331 99.7633 20.1807C99.4479 20.0283 99.0935 19.9521 98.7001 19.9521C98.2819 19.9521 97.9169 20.039 97.605 20.2126C97.2967 20.3827 97.0575 20.622 96.8873 20.9303C96.7208 21.2386 96.6375 21.6001 96.6375 22.0148H95.3829C95.3829 21.3768 95.53 20.8169 95.8241 20.3349C96.1183 19.8529 96.5188 19.4772 97.0256 19.2079C97.5359 18.9385 98.1083 18.8039 98.7427 18.8039C99.3806 18.8039 99.9459 18.9385 100.438 19.2079C100.931 19.4772 101.317 19.8405 101.597 20.2977C101.877 20.7549 102.017 21.2634 102.017 21.8234C102.017 22.2239 101.945 22.6155 101.799 22.9982C101.658 23.3775 101.41 23.801 101.055 24.2688C100.704 24.733 100.217 25.3001 99.5932 25.9699L97.1478 28.5854V28.6705H102.209V29.84H95.3404ZM106.297 28.3515L106.212 28.9256C106.151 29.3297 106.059 29.762 105.935 30.2228C105.815 30.6835 105.689 31.1176 105.558 31.5252C105.427 31.9327 105.319 32.257 105.234 32.498H104.277C104.323 32.2712 104.383 31.9717 104.457 31.5996C104.532 31.2275 104.606 30.8111 104.681 30.3503C104.759 29.8932 104.822 29.4253 104.872 28.9469L104.936 28.3515H106.297ZM116.638 18.9527V29.84H115.319V20.3349H115.256L112.598 22.0998V20.7602L115.319 18.9527H116.638ZM121.018 28.3515L120.933 28.9256C120.873 29.3297 120.781 29.762 120.657 30.2228C120.536 30.6835 120.41 31.1176 120.279 31.5252C120.148 31.9327 120.04 32.257 119.955 32.498H118.998C119.044 32.2712 119.104 31.9717 119.179 31.5996C119.253 31.2275 119.328 30.8111 119.402 30.3503C119.48 29.8932 119.544 29.4253 119.594 28.9469L119.657 28.3515H121.018ZM127.532 29.84V28.8831L131.125 24.9492C131.547 24.4885 131.894 24.088 132.167 23.7478C132.44 23.404 132.642 23.0815 132.773 22.7803C132.908 22.4755 132.975 22.1565 132.975 21.8234C132.975 21.4406 132.883 21.1093 132.699 20.8293C132.518 20.5493 132.27 20.3331 131.955 20.1807C131.639 20.0283 131.285 19.9521 130.891 19.9521C130.473 19.9521 130.108 20.039 129.796 20.2126C129.488 20.3827 129.249 20.622 129.079 20.9303C128.912 21.2386 128.829 21.6001 128.829 22.0148H127.574C127.574 21.3768 127.721 20.8169 128.015 20.3349C128.31 19.8529 128.71 19.4772 129.217 19.2079C129.727 18.9385 130.3 18.8039 130.934 18.8039C131.572 18.8039 132.137 18.9385 132.63 19.2079C133.122 19.4772 133.509 19.8405 133.789 20.2977C134.069 20.7549 134.209 21.2634 134.209 21.8234C134.209 22.2239 134.136 22.6155 133.991 22.9982C133.849 23.3775 133.601 23.801 133.246 24.2688C132.896 24.733 132.408 25.3001 131.785 25.9699L129.339 28.5854V28.6705H134.4V29.84H127.532ZM138.488 28.3515L138.403 28.9256C138.343 29.3297 138.251 29.762 138.127 30.2228C138.006 30.6835 137.88 31.1176 137.749 31.5252C137.618 31.9327 137.51 32.257 137.425 32.498H136.468C136.514 32.2712 136.574 31.9717 136.649 31.5996C136.723 31.2275 136.798 30.8111 136.872 30.3503C136.95 29.8932 137.014 29.4253 137.063 28.9469L137.127 28.3515H138.488ZM148.68 29.9888C147.979 29.9888 147.353 29.8683 146.804 29.6274C146.258 29.3864 145.824 29.0514 145.501 28.6226C145.182 28.1902 145.009 27.6888 144.98 27.1182H146.32C146.348 27.469 146.469 27.7721 146.681 28.0272C146.894 28.2788 147.172 28.4738 147.516 28.612C147.86 28.7502 148.241 28.8193 148.659 28.8193C149.127 28.8193 149.542 28.7378 149.903 28.5748C150.264 28.4118 150.548 28.1849 150.754 27.8943C150.959 27.6037 151.062 27.267 151.062 26.8843C151.062 26.4838 150.963 26.1312 150.764 25.8264C150.566 25.518 150.275 25.2771 149.892 25.1034C149.51 24.9297 149.042 24.8429 148.489 24.8429H147.617V23.6734H148.489C148.921 23.6734 149.301 23.5954 149.627 23.4395C149.956 23.2835 150.213 23.0638 150.397 22.7803C150.585 22.4968 150.679 22.1636 150.679 21.7809C150.679 21.4123 150.598 21.0915 150.435 20.8187C150.272 20.5458 150.041 20.3331 149.744 20.1807C149.449 20.0283 149.102 19.9521 148.702 19.9521C148.326 19.9521 147.971 20.0212 147.638 20.1595C147.309 20.2941 147.039 20.4908 146.83 20.7495C146.621 21.0047 146.508 21.3131 146.49 21.6745H145.214C145.236 21.104 145.407 20.6042 145.73 20.1754C146.052 19.743 146.474 19.4064 146.995 19.1654C147.52 18.9244 148.096 18.8039 148.723 18.8039C149.396 18.8039 149.974 18.9403 150.456 19.2132C150.938 19.4826 151.308 19.8387 151.567 20.2817C151.826 20.7247 151.955 21.2032 151.955 21.7171C151.955 22.3302 151.794 22.8529 151.471 23.2853C151.152 23.7177 150.718 24.0171 150.169 24.1837V24.2688C150.856 24.3822 151.393 24.6746 151.78 25.1459C152.166 25.6137 152.359 26.1932 152.359 26.8843C152.359 27.4761 152.198 28.0077 151.875 28.4791C151.556 28.9469 151.12 29.3155 150.568 29.5848C150.015 29.8542 149.386 29.9888 148.68 29.9888ZM156.09 28.3515L156.004 28.9256C155.944 29.3297 155.852 29.762 155.728 30.2228C155.608 30.6835 155.482 31.1176 155.351 31.5252C155.219 31.9327 155.111 32.257 155.026 32.498H154.069C154.116 32.2712 154.176 31.9717 154.25 31.5996C154.325 31.2275 154.399 30.8111 154.473 30.3503C154.551 29.8932 154.615 29.4253 154.665 28.9469L154.729 28.3515H156.09ZM162.603 29.84V28.8831L166.197 24.9492C166.618 24.4885 166.966 24.088 167.239 23.7478C167.512 23.404 167.714 23.0815 167.845 22.7803C167.979 22.4755 168.047 22.1565 168.047 21.8234C168.047 21.4406 167.955 21.1093 167.77 20.8293C167.59 20.5493 167.341 20.3331 167.026 20.1807C166.711 20.0283 166.356 19.9521 165.963 19.9521C165.545 19.9521 165.18 20.039 164.868 20.2126C164.559 20.3827 164.32 20.622 164.15 20.9303C163.983 21.2386 163.9 21.6001 163.9 22.0148H162.646C162.646 21.3768 162.793 20.8169 163.087 20.3349C163.381 19.8529 163.781 19.4772 164.288 19.2079C164.799 18.9385 165.371 18.8039 166.005 18.8039C166.643 18.8039 167.209 18.9385 167.701 19.2079C168.194 19.4772 168.58 19.8405 168.86 20.2977C169.14 20.7549 169.28 21.2634 169.28 21.8234C169.28 22.2239 169.207 22.6155 169.062 22.9982C168.92 23.3775 168.672 23.801 168.318 24.2688C167.967 24.733 167.48 25.3001 166.856 25.9699L164.411 28.5854V28.6705H169.471V29.84H162.603ZM173.559 28.3515L173.474 28.9256C173.414 29.3297 173.322 29.762 173.198 30.2228C173.077 30.6835 172.952 31.1176 172.82 31.5252C172.689 31.9327 172.581 32.257 172.496 32.498H171.539C171.585 32.2712 171.646 31.9717 171.72 31.5996C171.794 31.2275 171.869 30.8111 171.943 30.3503C172.021 29.8932 172.085 29.4253 172.135 28.9469L172.199 28.3515H173.559ZM183.752 29.9888C183.05 29.9888 182.424 29.8683 181.875 29.6274C181.329 29.3864 180.895 29.0514 180.573 28.6226C180.254 28.1902 180.08 27.6888 180.052 27.1182H181.391C181.42 27.469 181.54 27.7721 181.753 28.0272C181.965 28.2788 182.244 28.4738 182.587 28.612C182.931 28.7502 183.312 28.8193 183.73 28.8193C184.198 28.8193 184.613 28.7378 184.974 28.5748C185.336 28.4118 185.619 28.1849 185.825 27.8943C186.03 27.6037 186.133 27.267 186.133 26.8843C186.133 26.4838 186.034 26.1312 185.836 25.8264C185.637 25.518 185.346 25.2771 184.964 25.1034C184.581 24.9297 184.113 24.8429 183.56 24.8429H182.688V23.6734H183.56C183.993 23.6734 184.372 23.5954 184.698 23.4395C185.027 23.2835 185.284 23.0638 185.469 22.7803C185.657 22.4968 185.75 22.1636 185.75 21.7809C185.75 21.4123 185.669 21.0915 185.506 20.8187C185.343 20.5458 185.113 20.3331 184.815 20.1807C184.521 20.0283 184.173 19.9521 183.773 19.9521C183.397 19.9521 183.043 20.0212 182.71 20.1595C182.38 20.2941 182.111 20.4908 181.902 20.7495C181.693 21.0047 181.579 21.3131 181.561 21.6745H180.286C180.307 21.104 180.479 20.6042 180.801 20.1754C181.124 19.743 181.545 19.4064 182.066 19.1654C182.591 18.9244 183.167 18.8039 183.794 18.8039C184.468 18.8039 185.045 18.9403 185.527 19.2132C186.009 19.4826 186.38 19.8387 186.638 20.2817C186.897 20.7247 187.026 21.2032 187.026 21.7171C187.026 22.3302 186.865 22.8529 186.543 23.2853C186.224 23.7177 185.789 24.0171 185.24 24.1837V24.2688C185.928 24.3822 186.465 24.6746 186.851 25.1459C187.237 25.6137 187.43 26.1932 187.43 26.8843C187.43 27.4761 187.269 28.0077 186.947 28.4791C186.628 28.9469 186.192 29.3155 185.639 29.5848C185.086 29.8542 184.457 29.9888 183.752 29.9888ZM191.161 28.3515L191.076 28.9256C191.016 29.3297 190.923 29.762 190.799 30.2228C190.679 30.6835 190.553 31.1176 190.422 31.5252C190.291 31.9327 190.183 32.257 190.098 32.498H189.141C189.187 32.2712 189.247 31.9717 189.322 31.5996C189.396 31.2275 189.47 30.8111 189.545 30.3503C189.623 29.8932 189.687 29.4253 189.736 28.9469L189.8 28.3515H191.161ZM197.419 27.6073V26.5228L202.204 18.9527H202.99V20.6326H202.459L198.844 26.3527V26.4377H205.287V27.6073H197.419ZM202.544 29.84V27.2777V26.7726V18.9527H203.798V29.84H202.544ZM208.66 28.3515L208.575 28.9256C208.515 29.3297 208.423 29.762 208.298 30.2228C208.178 30.6835 208.052 31.1176 207.921 31.5252C207.79 31.9327 207.682 32.257 207.597 32.498H206.64C206.686 32.2712 206.746 31.9717 206.821 31.5996C206.895 31.2275 206.969 30.8111 207.044 30.3503C207.122 29.8932 207.186 29.4253 207.235 28.9469L207.299 28.3515H208.66ZM218.576 29.9888C217.952 29.9888 217.39 29.8648 216.891 29.6167C216.391 29.3686 215.99 29.0284 215.689 28.596C215.388 28.1637 215.223 27.671 215.195 27.1182H216.471C216.52 27.6108 216.743 28.0184 217.14 28.3409C217.541 28.6598 218.019 28.8193 218.576 28.8193C219.022 28.8193 219.419 28.7148 219.767 28.5057C220.117 28.2966 220.392 28.0095 220.591 27.6445C220.793 27.2759 220.894 26.8595 220.894 26.3952C220.894 25.9203 220.789 25.4968 220.58 25.1247C220.374 24.749 220.091 24.4531 219.729 24.2369C219.368 24.0207 218.955 23.9108 218.491 23.9073C218.158 23.9037 217.816 23.9551 217.465 24.0614C217.114 24.1642 216.825 24.2971 216.598 24.4602L215.365 24.3113L216.024 18.9527H221.68V20.1223H217.13L216.747 23.3331H216.811C217.034 23.1559 217.314 23.0089 217.651 22.8919C217.987 22.775 218.338 22.7165 218.703 22.7165C219.37 22.7165 219.963 22.876 220.484 23.1949C221.009 23.5104 221.42 23.9427 221.718 24.492C222.019 25.0414 222.169 25.6687 222.169 26.3739C222.169 27.0686 222.013 27.6888 221.702 28.2345C221.393 28.7768 220.968 29.2056 220.426 29.521C219.884 29.8329 219.267 29.9888 218.576 29.9888ZM225.764 28.3515L225.679 28.9256C225.619 29.3297 225.527 29.762 225.403 30.2228C225.282 30.6835 225.157 31.1176 225.025 31.5252C224.894 31.9327 224.786 32.257 224.701 32.498H223.744C223.79 32.2712 223.851 31.9717 223.925 31.5996C223.999 31.2275 224.074 30.8111 224.148 30.3503C224.226 29.8932 224.29 29.4253 224.34 28.9469L224.403 28.3515H225.764ZM232.023 27.6073V26.5228L236.807 18.9527H237.594V20.6326H237.062L233.447 26.3527V26.4377H239.89V27.6073H232.023ZM237.147 29.84V27.2777V26.7726V18.9527H238.402V29.84H237.147ZM244.413 17.5918V31.2009H241.266V30.159H243.222V18.6338H241.266V17.5918H244.413ZM250.007 24.3964C250.007 25.736 249.831 26.9693 249.481 28.0963C249.133 29.2198 248.635 30.2546 247.987 31.2009H246.881C247.136 30.85 247.374 30.4177 247.593 29.9038C247.817 29.3934 248.012 28.8335 248.178 28.2239C248.345 27.6108 248.474 26.9782 248.566 26.3261C248.662 25.6704 248.71 25.0272 248.71 24.3964C248.71 23.5529 248.628 22.697 248.465 21.8287C248.302 20.9604 248.082 20.1542 247.806 19.4099C247.53 18.6657 247.221 18.0596 246.881 17.5918H247.987C248.635 18.5381 249.133 19.5747 249.481 20.7017C249.831 21.8252 250.007 23.0567 250.007 24.3964Z" fill="#294270"/>
<path d="M355.609 149.029C354.986 149.029 354.424 148.905 353.924 148.657C353.424 148.409 353.024 148.068 352.723 147.636C352.421 147.204 352.257 146.711 352.228 146.158H353.504C353.554 146.651 353.777 147.058 354.174 147.381C354.574 147.7 355.053 147.859 355.609 147.859C356.056 147.859 356.453 147.755 356.8 147.546C357.151 147.337 357.426 147.05 357.624 146.684C357.826 146.316 357.927 145.899 357.927 145.435C357.927 144.96 357.823 144.537 357.613 144.165C357.408 143.789 357.124 143.493 356.763 143.277C356.401 143.061 355.988 142.951 355.524 142.947C355.191 142.944 354.849 142.995 354.498 143.101C354.147 143.204 353.859 143.337 353.632 143.5L352.398 143.351L353.058 137.993H358.714V139.162H354.163L353.781 142.373H353.844C354.068 142.196 354.348 142.049 354.684 141.932C355.021 141.815 355.372 141.756 355.737 141.756C356.403 141.756 356.997 141.916 357.518 142.235C358.042 142.55 358.453 142.983 358.751 143.532C359.052 144.081 359.203 144.709 359.203 145.414C359.203 146.109 359.047 146.729 358.735 147.275C358.427 147.817 358.001 148.246 357.459 148.561C356.917 148.873 356.3 149.029 355.609 149.029ZM366.014 142.852V144.021H361.251V142.852H366.014ZM372.028 137.993V148.88H370.71V139.375H370.646L367.988 141.14V139.8L370.71 137.993H372.028ZM375.691 142.437V141.289H382.24V142.437H375.691ZM375.691 145.584V144.436H382.24V145.584H375.691ZM384.772 146.647V145.563L389.556 137.993H390.343V139.673H389.811L386.196 145.393V145.478H392.64V146.647H384.772ZM389.896 148.88V146.318V145.813V137.993H391.151V148.88H389.896Z" fill="#F0801A"/>
<path d="M22.2794 186.316V195.72H21.1407V187.51H21.0856L18.7898 189.035V187.878L21.1407 186.316H22.2794Z" fill="#737370"/>
<path d="M18.9734 168.77V167.944L22.0774 164.546C22.4416 164.148 22.7416 163.802 22.9773 163.508C23.213 163.211 23.3875 162.933 23.5008 162.672C23.6171 162.409 23.6752 162.134 23.6752 161.846C23.6752 161.515 23.5957 161.229 23.4365 160.987C23.2804 160.745 23.0661 160.559 22.7937 160.427C22.5212 160.295 22.2151 160.23 21.8753 160.23C21.5141 160.23 21.1988 160.305 20.9295 160.455C20.6631 160.602 20.4565 160.808 20.3096 161.074C20.1657 161.341 20.0938 161.653 20.0938 162.011H19.0102C19.0102 161.46 19.1372 160.976 19.3913 160.56C19.6453 160.144 19.9912 159.819 20.429 159.587C20.8698 159.354 21.3641 159.238 21.9121 159.238C22.4631 159.238 22.9513 159.354 23.3768 159.587C23.8023 159.819 24.1359 160.133 24.3778 160.528C24.6196 160.923 24.7405 161.362 24.7405 161.846C24.7405 162.192 24.6777 162.53 24.5522 162.861C24.4298 163.188 24.2155 163.554 23.9094 163.958C23.6064 164.359 23.1855 164.849 22.6467 165.427L20.5346 167.686V167.76H24.9058V168.77H18.9734Z" fill="#737370"/>
<path d="M22.1508 141.949C21.5447 141.949 21.0044 141.844 20.53 141.636C20.0586 141.428 19.6836 141.139 19.405 140.769C19.1295 140.395 18.9795 139.962 18.9551 139.469H20.1121C20.1366 139.772 20.2407 140.034 20.4244 140.254C20.608 140.472 20.8483 140.64 21.1453 140.759C21.4422 140.879 21.7713 140.938 22.1325 140.938C22.5365 140.938 22.8947 140.868 23.2069 140.727C23.5191 140.586 23.764 140.39 23.9416 140.139C24.1191 139.888 24.2079 139.598 24.2079 139.267C24.2079 138.921 24.1222 138.617 23.9507 138.353C23.7793 138.087 23.5283 137.879 23.1977 137.729C22.8671 137.579 22.4631 137.504 21.9855 137.504H21.2325V136.494H21.9855C22.359 136.494 22.6865 136.426 22.9681 136.292C23.2528 136.157 23.4747 135.967 23.6339 135.722C23.7962 135.477 23.8773 135.19 23.8773 134.859C23.8773 134.541 23.8069 134.264 23.6661 134.028C23.5252 133.792 23.3263 133.609 23.0691 133.477C22.8151 133.345 22.5151 133.28 22.1692 133.28C21.8447 133.28 21.5386 133.339 21.2509 133.459C20.9662 133.575 20.7335 133.745 20.5529 133.968C20.3723 134.189 20.2744 134.455 20.2591 134.767H19.1571C19.1755 134.274 19.3239 133.843 19.6025 133.472C19.881 133.099 20.2453 132.808 20.6953 132.6C21.1483 132.392 21.6457 132.288 22.1876 132.288C22.7692 132.288 23.2681 132.406 23.6844 132.641C24.1007 132.874 24.4206 133.182 24.6441 133.564C24.8675 133.947 24.9793 134.36 24.9793 134.804C24.9793 135.334 24.84 135.785 24.5614 136.159C24.2859 136.532 23.9109 136.791 23.4365 136.935V137.008C24.0303 137.106 24.4941 137.358 24.8277 137.766C25.1614 138.17 25.3282 138.67 25.3282 139.267C25.3282 139.778 25.1889 140.237 24.9104 140.645C24.6349 141.049 24.2584 141.367 23.7808 141.6C23.3033 141.832 22.76 141.949 22.1508 141.949Z" fill="#737370"/>
<path d="M18.753 112.952V112.015L22.8855 105.476H23.565V106.927H23.1059L19.9836 111.868V111.941H25.5486V112.952H18.753ZM23.1793 114.88V112.667V112.231V105.476H24.263V114.88H23.1793Z" fill="#737370"/>
<path d="M21.9121 88.0586C21.3733 88.0586 20.8881 87.9514 20.4565 87.7372C20.0249 87.5229 19.679 87.229 19.4188 86.8556C19.1586 86.4821 19.0163 86.0566 18.9918 85.5791H20.0938C20.1366 86.0046 20.3295 86.3566 20.6723 86.6352C21.0182 86.9107 21.4315 87.0484 21.9121 87.0484C22.2978 87.0484 22.6406 86.9581 22.9406 86.7775C23.2436 86.5969 23.4809 86.349 23.6523 86.0337C23.8268 85.7153 23.914 85.3556 23.914 84.9546C23.914 84.5444 23.8237 84.1786 23.6431 83.8572C23.4656 83.5328 23.2207 83.2772 22.9084 83.0904C22.5962 82.9037 22.2396 82.8088 21.8386 82.8058C21.5509 82.8027 21.2555 82.8471 20.9524 82.9389C20.6494 83.0277 20.3999 83.1425 20.204 83.2833L19.1387 83.1547L19.7081 78.5264H24.5936V79.5365H20.6631L20.3325 82.3099H20.3876C20.5805 82.1568 20.8223 82.0298 21.1131 81.9288C21.4039 81.8277 21.707 81.7772 22.0223 81.7772C22.5977 81.7772 23.1105 81.915 23.5605 82.1905C24.0135 82.4629 24.3686 82.8364 24.6257 83.3108C24.8859 83.7853 25.016 84.3271 25.016 84.9363C25.016 85.5362 24.8813 86.0719 24.6119 86.5433C24.3456 87.0117 23.9783 87.3821 23.5099 87.6545C23.0416 87.9239 22.509 88.0586 21.9121 88.0586Z" fill="#737370"/>
<path d="M22.0957 61.1086C21.71 61.1024 21.3243 61.029 20.9386 60.8882C20.5529 60.7474 20.2009 60.5101 19.8826 60.1765C19.5642 59.8397 19.3086 59.3852 19.1158 58.8128C18.9229 58.2373 18.8265 57.5149 18.8265 56.6455C18.8265 55.8129 18.9045 55.0752 19.0607 54.4323C19.2168 53.7865 19.4433 53.2431 19.7402 52.8023C20.0371 52.3585 20.3953 52.0217 20.8147 51.7922C21.2371 51.5626 21.7131 51.4478 22.2427 51.4478C22.7692 51.4478 23.2375 51.5534 23.6477 51.7646C24.0609 51.9728 24.3977 52.2636 24.6578 52.637C24.918 53.0105 25.0864 53.4406 25.1629 53.9273H24.0426C23.9385 53.5048 23.7365 53.1543 23.4365 52.8758C23.1365 52.5972 22.7386 52.4579 22.2427 52.4579C21.5141 52.4579 20.9402 52.7748 20.5208 53.4084C20.1045 54.0421 19.8948 54.9313 19.8917 56.0761H19.9652C20.1366 55.816 20.3402 55.594 20.5759 55.4104C20.8147 55.2236 21.0779 55.0798 21.3657 54.9787C21.6534 54.8777 21.958 54.8272 22.2794 54.8272C22.8181 54.8272 23.311 54.9619 23.7579 55.2313C24.2048 55.4976 24.563 55.8665 24.8323 56.3379C25.1017 56.8062 25.2364 57.3434 25.2364 57.9495C25.2364 58.5311 25.1063 59.0638 24.8461 59.5474C24.5859 60.028 24.2201 60.4106 23.7487 60.6953C23.2804 60.9769 22.7294 61.1147 22.0957 61.1086ZM22.0957 60.0984C22.4814 60.0984 22.8273 60.002 23.1334 59.8091C23.4426 59.6163 23.686 59.3576 23.8635 59.0331C24.0441 58.7087 24.1344 58.3475 24.1344 57.9495C24.1344 57.5608 24.0472 57.2072 23.8727 56.8889C23.7013 56.5674 23.464 56.3118 23.161 56.1221C22.861 55.9323 22.5182 55.8374 22.1325 55.8374C21.8417 55.8374 21.5707 55.8955 21.3197 56.0119C21.0687 56.1251 20.8483 56.2812 20.6585 56.4802C20.4718 56.6792 20.3249 56.9072 20.2178 57.1644C20.1106 57.4184 20.057 57.6863 20.057 57.9679C20.057 58.3413 20.1443 58.6903 20.3188 59.0148C20.4963 59.3393 20.7381 59.601 21.0442 59.7999C21.3534 59.9989 21.7039 60.0984 22.0957 60.0984Z" fill="#737370"/>
<path d="M22.0406 222.799C21.3488 222.799 20.7596 222.61 20.2729 222.234C19.7861 221.854 19.4142 221.305 19.1571 220.585C18.9 219.863 18.7714 218.991 18.7714 217.968C18.7714 216.952 18.9 216.084 19.1571 215.365C19.4173 214.642 19.7907 214.091 20.2774 213.712C20.7672 213.329 21.3549 213.138 22.0406 213.138C22.7263 213.138 23.3125 213.329 23.7992 213.712C24.289 214.091 24.6624 214.642 24.9196 215.365C25.1798 216.084 25.3099 216.952 25.3099 217.968C25.3099 218.991 25.1813 219.863 24.9242 220.585C24.667 221.305 24.2951 221.854 23.8084 222.234C23.3217 222.61 22.7324 222.799 22.0406 222.799ZM22.0406 221.788C22.7263 221.788 23.2589 221.458 23.6385 220.797C24.0181 220.135 24.2079 219.193 24.2079 217.968C24.2079 217.154 24.1206 216.461 23.9461 215.888C23.7747 215.316 23.5268 214.88 23.2023 214.58C22.8809 214.28 22.4937 214.13 22.0406 214.13C21.3611 214.13 20.83 214.465 20.4473 215.135C20.0647 215.802 19.8734 216.747 19.8734 217.968C19.8734 218.782 19.9591 219.474 20.1305 220.044C20.3019 220.613 20.5483 221.046 20.8698 221.343C21.1942 221.64 21.5845 221.788 22.0406 221.788Z" fill="#737370"/>
<path d="M38.26 39.64V229.6" stroke="#737370" stroke-miterlimit="10"/>
<path d="M30.66 84.81H47.13" stroke="#737370" stroke-miterlimit="10"/>
<path d="M30.66 111.61H47.13" stroke="#737370" stroke-miterlimit="10"/>
<path d="M30.66 138.42H47.13" stroke="#737370" stroke-miterlimit="10"/>
<path d="M30.66 165.23H47.13" stroke="#737370" stroke-miterlimit="10"/>
<path d="M30.66 192.03H47.13" stroke="#737370" stroke-miterlimit="10"/>
<path d="M30.66 58H47.13" stroke="#737370" stroke-miterlimit="10"/>
<path d="M93 85H81V221H93V85Z" fill="#294270"/>
<path d="M119.88 165.02H108.48V220.74H119.88V165.02Z" fill="#294270"/>
<path d="M147.04 191.61H135.64V220.74H147.04V191.61Z" fill="#294270"/>
<path d="M174.2 165.02H162.8V220.74H174.2V165.02Z" fill="#294270"/>
<path d="M201.36 139.69H189.96V220.74H201.36V139.69Z" fill="#294270"/>
<path d="M228.52 165.02H217.12V220.74H228.52V165.02Z" fill="#294270"/>
<path d="M255.67 139.69H244.27V220.74H255.67V139.69Z" fill="#294270"/>
<path d="M282.83 111.82H271.43V220.74H282.83V111.82Z" fill="#294270"/>
<path d="M309.99 85.23H298.59V220.74H309.99V85.23Z" fill="#294270"/>
<path d="M337.15 111.82H325.75V220.74H337.15V111.82Z" fill="#294270"/>
<path d="M362.48 220.11H29.4" stroke="#737370" stroke-miterlimit="10"/>
<path d="M149.93 232.67L141.19 228.93C141.082 228.881 140.964 228.855 140.845 228.855C140.726 228.855 140.608 228.881 140.5 228.93L131.77 232.67C131.613 232.737 131.479 232.848 131.385 232.99C131.29 233.133 131.24 233.299 131.24 233.47V243.47C131.237 243.641 131.287 243.809 131.381 243.952C131.476 244.095 131.611 244.206 131.77 244.27L140.5 248.02C140.721 248.11 140.969 248.11 141.19 248.02L149.93 244.27C150.088 244.204 150.223 244.093 150.317 243.951C150.411 243.808 150.461 243.641 150.46 243.47V233.47C150.459 233.3 150.408 233.133 150.314 232.991C150.22 232.849 150.086 232.738 149.93 232.67ZM139.93 245.88L132.93 242.88V234.79L139.93 237.79V245.88ZM140.81 236.27L134.29 233.47L140.81 230.68L147.33 233.47L140.81 236.27ZM148.67 242.88L141.67 245.88V237.8L148.67 234.8V242.88Z" fill="#F0801A"/>
<path d="M304.22 228.68C302.284 228.68 300.391 229.254 298.781 230.33C297.171 231.406 295.916 232.935 295.175 234.724C294.434 236.512 294.24 238.481 294.618 240.38C294.996 242.279 295.928 244.023 297.297 245.393C298.667 246.762 300.411 247.694 302.31 248.072C304.209 248.45 306.178 248.256 307.966 247.515C309.755 246.774 311.284 245.519 312.36 243.909C313.436 242.299 314.01 240.406 314.01 238.47C314.01 235.874 312.979 233.383 311.143 231.547C309.307 229.711 306.816 228.68 304.22 228.68ZM304.22 246.48C302.638 246.48 301.091 246.011 299.775 245.132C298.46 244.253 297.434 243.003 296.829 241.541C296.223 240.08 296.065 238.471 296.374 236.919C296.682 235.367 297.444 233.942 298.563 232.823C299.682 231.704 301.107 230.942 302.659 230.634C304.211 230.325 305.82 230.483 307.281 231.089C308.743 231.694 309.993 232.72 310.872 234.035C311.751 235.351 312.22 236.898 312.22 238.48C312.22 240.602 311.377 242.637 309.877 244.137C308.377 245.637 306.342 246.48 304.22 246.48Z" fill="#F0801A"/>
<path d="M305.1 237.58V234.87C306.1 234.87 306.88 235.48 306.88 236.2H308.66C308.598 235.316 308.189 234.493 307.522 233.91C306.855 233.327 305.984 233.032 305.1 233.09V231.31H303.32V233.09C302.878 233.034 302.429 233.073 302.003 233.203C301.577 233.334 301.183 233.554 300.849 233.849C300.514 234.144 300.246 234.506 300.063 234.912C299.879 235.319 299.785 235.759 299.785 236.205C299.785 236.651 299.879 237.091 300.063 237.498C300.246 237.904 300.514 238.266 300.849 238.561C301.183 238.856 301.577 239.076 302.003 239.207C302.429 239.337 302.878 239.376 303.32 239.32V241.99C302.32 241.99 301.54 241.38 301.54 240.65H299.76C299.824 241.534 300.234 242.356 300.9 242.94C301.566 243.524 302.436 243.822 303.32 243.77V245.55H305.1V243.77C305.542 243.826 305.991 243.787 306.417 243.657C306.843 243.526 307.237 243.306 307.571 243.011C307.906 242.716 308.174 242.354 308.357 241.948C308.541 241.541 308.635 241.101 308.635 240.655C308.635 240.209 308.541 239.769 308.357 239.362C308.174 238.956 307.906 238.594 307.571 238.299C307.237 238.004 306.843 237.784 306.417 237.653C305.991 237.523 305.542 237.484 305.1 237.54V237.58ZM303.32 237.58C302.32 237.58 301.54 236.97 301.54 236.24C301.54 235.51 302.36 234.91 303.32 234.91V237.58ZM305.1 242.03V239.36C306.1 239.36 306.88 239.97 306.88 240.69C306.88 241.41 306.1 242.03 305.1 242.03Z" fill="#F0801A"/>
<path d="M131.98 191.61H362.48" stroke="#F0801A" stroke-miterlimit="10"/>
<path d="M294.72 85.86H362.48" stroke="#F0801A" stroke-miterlimit="10"/>
</svg>
