<svg width="424" height="259" viewBox="0 0 424 259" fill="none" xmlns="http://www.w3.org/2000/svg">
<path d="M77.7649 37.3609V23.7518H80.912V24.7938H78.9557V36.319H80.912V37.3609H77.7649ZM86.1656 36.1488C85.7191 36.1418 85.2725 36.0567 84.826 35.8937C84.3794 35.7307 83.9719 35.456 83.6033 35.0697C83.2347 34.6798 82.9388 34.1536 82.7155 33.4908C82.4922 32.8245 82.3806 31.9882 82.3806 30.9816C82.3806 30.0177 82.471 29.1636 82.6517 28.4193C82.8325 27.6715 83.0947 27.0425 83.4385 26.5321C83.7823 26.0182 84.1969 25.6284 84.6824 25.3626C85.1715 25.0968 85.7226 24.9639 86.3357 24.9639C86.9453 24.9639 87.4875 25.0861 87.9624 25.3307C88.4409 25.5717 88.8307 25.9084 89.132 26.3407C89.4332 26.7731 89.6281 27.271 89.7167 27.8345H88.4196C88.2991 27.3455 88.0652 26.9397 87.7179 26.6172C87.3706 26.2947 86.9099 26.1334 86.3357 26.1334C85.4923 26.1334 84.8277 26.5002 84.3422 27.2338C83.8602 27.9674 83.6175 28.997 83.6139 30.3225H83.699C83.8974 30.0212 84.1331 29.7643 84.406 29.5516C84.6824 29.3354 84.9872 29.1689 85.3204 29.0519C85.6535 28.935 86.0061 28.8765 86.3783 28.8765C87.002 28.8765 87.5726 29.0324 88.09 29.3443C88.6075 29.6526 89.0221 30.0797 89.334 30.6255C89.6459 31.1677 89.8018 31.7897 89.8018 32.4914C89.8018 33.1648 89.6512 33.7814 89.3499 34.3414C89.0487 34.8978 88.6252 35.3408 88.0794 35.6704C87.5372 35.9965 86.8992 36.1559 86.1656 36.1488ZM86.1656 34.9793C86.6122 34.9793 87.0126 34.8677 87.367 34.6444C87.725 34.4211 88.0067 34.1217 88.2123 33.746C88.4214 33.3703 88.5259 32.9521 88.5259 32.4914C88.5259 32.0413 88.4249 31.632 88.2229 31.2634C88.0245 30.8913 87.7498 30.5953 87.3989 30.3756C87.0516 30.1559 86.6547 30.046 86.2081 30.046C85.8715 30.046 85.5578 30.1134 85.2672 30.248C84.9766 30.3792 84.7214 30.5599 84.5017 30.7903C84.2855 31.0206 84.1154 31.2847 83.9914 31.5824C83.8673 31.8765 83.8053 32.1866 83.8053 32.5127C83.8053 32.945 83.9063 33.3491 84.1083 33.7247C84.3139 34.1004 84.5938 34.4034 84.9482 34.6338C85.3062 34.8641 85.712 34.9793 86.1656 34.9793ZM93.2732 34.5115L93.1881 35.0856C93.1279 35.4897 93.0357 35.922 92.9117 36.3828C92.7912 36.8435 92.6654 37.2776 92.5342 37.6852C92.4031 38.0928 92.295 38.417 92.21 38.658H91.2531C91.2992 38.4312 91.3594 38.1317 91.4338 37.7596C91.5083 37.3875 91.5827 36.9711 91.6571 36.5103C91.7351 36.0532 91.7989 35.5853 91.8485 35.1069L91.9123 34.5115H93.2732ZM108.207 36V35.0431L111.801 31.1092C112.223 30.6485 112.57 30.248 112.843 29.9078C113.116 29.564 113.318 29.2415 113.449 28.9403C113.584 28.6355 113.651 28.3165 113.651 27.9834C113.651 27.6006 113.559 27.2693 113.374 26.9893C113.194 26.7093 112.946 26.4931 112.63 26.3407C112.315 26.1883 111.96 26.1121 111.567 26.1121C111.149 26.1121 110.784 26.199 110.472 26.3726C110.164 26.5427 109.924 26.782 109.754 27.0903C109.588 27.3986 109.504 27.7601 109.504 28.1748H108.25C108.25 27.5368 108.397 26.9769 108.691 26.4949C108.985 26.0129 109.386 25.6372 109.892 25.3679C110.403 25.0986 110.975 24.9639 111.61 24.9639C112.247 24.9639 112.813 25.0986 113.305 25.3679C113.798 25.6372 114.184 26.0005 114.464 26.4577C114.744 26.9149 114.884 27.4234 114.884 27.9834C114.884 28.3839 114.812 28.7755 114.666 29.1582C114.525 29.5375 114.276 29.961 113.922 30.4288C113.571 30.893 113.084 31.4601 112.46 32.1299L110.015 34.7454V34.8305H115.076V36H108.207ZM119.164 34.5115L119.079 35.0856C119.018 35.4897 118.926 35.922 118.802 36.3828C118.682 36.8435 118.556 37.2776 118.425 37.6852C118.294 38.0928 118.186 38.417 118.1 38.658H117.144C117.19 38.4312 117.25 38.1317 117.324 37.7596C117.399 37.3875 117.473 36.9711 117.548 36.5103C117.626 36.0532 117.689 35.5853 117.739 35.1069L117.803 34.5115H119.164ZM137.925 25.1127V36H136.607V26.4949H136.543L133.885 28.2598V26.9202L136.607 25.1127H137.925ZM142.306 34.5115L142.221 35.0856C142.16 35.4897 142.068 35.922 141.944 36.3828C141.824 36.8435 141.698 37.2776 141.567 37.6852C141.436 38.0928 141.328 38.417 141.243 38.658H140.286C140.332 38.4312 140.392 38.1317 140.466 37.7596C140.541 37.3875 140.615 36.9711 140.69 36.5103C140.768 36.0532 140.831 35.5853 140.881 35.1069L140.945 34.5115H142.306ZM161.45 36V35.0431L165.044 31.1092C165.466 30.6485 165.813 30.248 166.086 29.9078C166.359 29.564 166.561 29.2415 166.692 28.9403C166.827 28.6355 166.894 28.3165 166.894 27.9834C166.894 27.6006 166.802 27.2693 166.617 26.9893C166.437 26.7093 166.189 26.4931 165.873 26.3407C165.558 26.1883 165.203 26.1121 164.81 26.1121C164.392 26.1121 164.027 26.199 163.715 26.3726C163.407 26.5427 163.167 26.782 162.997 27.0903C162.831 27.3986 162.747 27.7601 162.747 28.1748H161.493C161.493 27.5368 161.64 26.9769 161.934 26.4949C162.228 26.0129 162.629 25.6372 163.135 25.3679C163.646 25.0986 164.218 24.9639 164.852 24.9639C165.49 24.9639 166.056 25.0986 166.548 25.3679C167.041 25.6372 167.427 26.0005 167.707 26.4577C167.987 26.9149 168.127 27.4234 168.127 27.9834C168.127 28.3839 168.055 28.7755 167.909 29.1582C167.767 29.5375 167.519 29.961 167.165 30.4288C166.814 30.893 166.327 31.4601 165.703 32.1299L163.258 34.7454V34.8305H168.319V36H161.45ZM172.407 34.5115L172.322 35.0856C172.261 35.4897 172.169 35.922 172.045 36.3828C171.925 36.8435 171.799 37.2776 171.668 37.6852C171.537 38.0928 171.428 38.417 171.343 38.658H170.386C170.433 38.4312 170.493 38.1317 170.567 37.7596C170.642 37.3875 170.716 36.9711 170.791 36.5103C170.868 36.0532 170.932 35.5853 170.982 35.1069L171.046 34.5115H172.407ZM195.23 36.1488C194.528 36.1488 193.902 36.0284 193.353 35.7874C192.807 35.5464 192.373 35.2115 192.051 34.7826C191.732 34.3503 191.558 33.8488 191.53 33.2782H192.869C192.898 33.629 193.018 33.9321 193.231 34.1872C193.444 34.4389 193.722 34.6338 194.066 34.772C194.409 34.9102 194.79 34.9793 195.208 34.9793C195.676 34.9793 196.091 34.8978 196.452 34.7348C196.814 34.5718 197.097 34.3449 197.303 34.0543C197.509 33.7637 197.611 33.427 197.611 33.0443C197.611 32.6438 197.512 32.2912 197.314 31.9864C197.115 31.6781 196.825 31.4371 196.442 31.2634C196.059 31.0897 195.591 31.0029 195.038 31.0029H194.167V29.8334H195.038C195.471 29.8334 195.85 29.7554 196.176 29.5995C196.506 29.4435 196.763 29.2238 196.947 28.9403C197.135 28.6568 197.229 28.3236 197.229 27.9409C197.229 27.5723 197.147 27.2516 196.984 26.9787C196.821 26.7058 196.591 26.4931 196.293 26.3407C195.999 26.1883 195.651 26.1121 195.251 26.1121C194.875 26.1121 194.521 26.1813 194.188 26.3195C193.858 26.4541 193.589 26.6508 193.38 26.9096C193.171 27.1647 193.057 27.4731 193.04 27.8345H191.764C191.785 27.264 191.957 26.7642 192.279 26.3354C192.602 25.903 193.024 25.5664 193.545 25.3254C194.069 25.0844 194.645 24.9639 195.272 24.9639C195.946 24.9639 196.523 25.1003 197.005 25.3732C197.487 25.6426 197.858 25.9987 198.116 26.4417C198.375 26.8847 198.504 27.3632 198.504 27.8771C198.504 28.4902 198.343 29.0129 198.021 29.4453C197.702 29.8777 197.268 30.1772 196.718 30.3437V30.4288C197.406 30.5422 197.943 30.8346 198.329 31.3059C198.715 31.7737 198.908 32.3532 198.908 33.0443C198.908 33.6361 198.747 34.1677 198.425 34.6391C198.106 35.1069 197.67 35.4755 197.117 35.7448C196.564 36.0142 195.935 36.1488 195.23 36.1488ZM202.639 34.5115L202.554 35.0856C202.494 35.4897 202.402 35.922 202.277 36.3828C202.157 36.8435 202.031 37.2776 201.9 37.6852C201.769 38.0928 201.661 38.417 201.576 38.658H200.619C200.665 38.4312 200.725 38.1317 200.8 37.7596C200.874 37.3875 200.948 36.9711 201.023 36.5103C201.101 36.0532 201.165 35.5853 201.214 35.1069L201.278 34.5115H202.639ZM217.573 36V35.0431L221.167 31.1092C221.588 30.6485 221.936 30.248 222.209 29.9078C222.482 29.564 222.684 29.2415 222.815 28.9403C222.949 28.6355 223.017 28.3165 223.017 27.9834C223.017 27.6006 222.925 27.2693 222.74 26.9893C222.56 26.7093 222.311 26.4931 221.996 26.3407C221.681 26.1883 221.326 26.1121 220.933 26.1121C220.515 26.1121 220.15 26.199 219.838 26.3726C219.529 26.5427 219.29 26.782 219.12 27.0903C218.953 27.3986 218.87 27.7601 218.87 28.1748H217.616C217.616 27.5368 217.763 26.9769 218.057 26.4949C218.351 26.0129 218.751 25.6372 219.258 25.3679C219.769 25.0986 220.341 24.9639 220.975 24.9639C221.613 24.9639 222.179 25.0986 222.671 25.3679C223.164 25.6372 223.55 26.0005 223.83 26.4577C224.11 26.9149 224.25 27.4234 224.25 27.9834C224.25 28.3839 224.177 28.7755 224.032 29.1582C223.89 29.5375 223.642 29.961 223.288 30.4288C222.937 30.893 222.45 31.4601 221.826 32.1299L219.381 34.7454V34.8305H224.441V36H217.573ZM228.529 34.5115L228.444 35.0856C228.384 35.4897 228.292 35.922 228.168 36.3828C228.047 36.8435 227.922 37.2776 227.791 37.6852C227.659 38.0928 227.551 38.417 227.466 38.658H226.509C226.555 38.4312 226.616 38.1317 226.69 37.7596C226.765 37.3875 226.839 36.9711 226.913 36.5103C226.991 36.0532 227.055 35.5853 227.105 35.1069L227.169 34.5115H228.529ZM247.142 36.1488C246.441 36.1488 245.815 36.0284 245.266 35.7874C244.72 35.5464 244.286 35.2115 243.963 34.7826C243.644 34.3503 243.471 33.8488 243.442 33.2782H244.782C244.81 33.629 244.931 33.9321 245.143 34.1872C245.356 34.4389 245.634 34.6338 245.978 34.772C246.322 34.9102 246.703 34.9793 247.121 34.9793C247.589 34.9793 248.003 34.8978 248.365 34.7348C248.726 34.5718 249.01 34.3449 249.216 34.0543C249.421 33.7637 249.524 33.427 249.524 33.0443C249.524 32.6438 249.425 32.2912 249.226 31.9864C249.028 31.6781 248.737 31.4371 248.354 31.2634C247.972 31.0897 247.504 31.0029 246.951 31.0029H246.079V29.8334H246.951C247.383 29.8334 247.762 29.7554 248.089 29.5995C248.418 29.4435 248.675 29.2238 248.859 28.9403C249.047 28.6568 249.141 28.3236 249.141 27.9409C249.141 27.5723 249.06 27.2516 248.897 26.9787C248.734 26.7058 248.503 26.4931 248.205 26.3407C247.911 26.1883 247.564 26.1121 247.164 26.1121C246.788 26.1121 246.433 26.1813 246.1 26.3195C245.771 26.4541 245.501 26.6508 245.292 26.9096C245.083 27.1647 244.97 27.4731 244.952 27.8345H243.676C243.697 27.264 243.869 26.7642 244.192 26.3354C244.514 25.903 244.936 25.5664 245.457 25.3254C245.982 25.0844 246.558 24.9639 247.185 24.9639C247.858 24.9639 248.436 25.1003 248.918 25.3732C249.4 25.6426 249.77 25.9987 250.029 26.4417C250.288 26.8847 250.417 27.3632 250.417 27.8771C250.417 28.4902 250.256 29.0129 249.933 29.4453C249.614 29.8777 249.18 30.1772 248.631 30.3437V30.4288C249.318 30.5422 249.855 30.8346 250.242 31.3059C250.628 31.7737 250.821 32.3532 250.821 33.0443C250.821 33.6361 250.66 34.1677 250.337 34.6391C250.018 35.1069 249.582 35.4755 249.029 35.7448C248.477 36.0142 247.848 36.1488 247.142 36.1488ZM254.552 34.5115L254.466 35.0856C254.406 35.4897 254.314 35.922 254.19 36.3828C254.07 36.8435 253.944 37.2776 253.813 37.6852C253.681 38.0928 253.573 38.417 253.488 38.658H252.531C252.578 38.4312 252.638 38.1317 252.712 37.7596C252.787 37.3875 252.861 36.9711 252.935 36.5103C253.013 36.0532 253.077 35.5853 253.127 35.1069L253.191 34.5115H254.552ZM269.23 33.7673V32.6828L274.015 25.1127H274.802V26.7926H274.27L270.655 32.5127V32.5977H277.098V33.7673H269.23ZM274.355 36V33.4377V32.9326V25.1127H275.61V36H274.355ZM280.471 34.5115L280.386 35.0856C280.326 35.4897 280.234 35.922 280.11 36.3828C279.989 36.8435 279.863 37.2776 279.732 37.6852C279.601 38.0928 279.493 38.417 279.408 38.658H278.451C278.497 38.4312 278.557 38.1317 278.632 37.7596C278.706 37.3875 278.781 36.9711 278.855 36.5103C278.933 36.0532 278.997 35.5853 279.047 35.1069L279.11 34.5115H280.471ZM303.018 36.1488C302.394 36.1488 301.832 36.0248 301.333 35.7767C300.833 35.5286 300.433 35.1884 300.131 34.756C299.83 34.3237 299.665 33.8311 299.637 33.2782H300.913C300.962 33.7708 301.186 34.1784 301.583 34.5009C301.983 34.8198 302.462 34.9793 303.018 34.9793C303.465 34.9793 303.861 34.8748 304.209 34.6657C304.56 34.4566 304.834 34.1695 305.033 33.8045C305.235 33.4359 305.336 33.0195 305.336 32.5552C305.336 32.0803 305.231 31.6568 305.022 31.2847C304.817 30.909 304.533 30.6131 304.172 30.3969C303.81 30.1807 303.397 30.0708 302.933 30.0673C302.6 30.0637 302.258 30.1151 301.907 30.2215C301.556 30.3242 301.267 30.4571 301.04 30.6202L299.807 30.4713L300.466 25.1127H306.123V26.2823H301.572L301.189 29.4932H301.253C301.476 29.316 301.756 29.1689 302.093 29.0519C302.43 28.935 302.781 28.8765 303.146 28.8765C303.812 28.8765 304.405 29.036 304.926 29.3549C305.451 29.6704 305.862 30.1027 306.16 30.6521C306.461 31.2014 306.612 31.8287 306.612 32.5339C306.612 33.2286 306.456 33.8488 306.144 34.3946C305.835 34.9368 305.41 35.3656 304.868 35.681C304.326 35.9929 303.709 36.1488 303.018 36.1488ZM310.207 34.5115L310.122 35.0856C310.061 35.4897 309.969 35.922 309.845 36.3828C309.725 36.8435 309.599 37.2776 309.468 37.6852C309.337 38.0928 309.228 38.417 309.143 38.658H308.187C308.233 38.4312 308.293 38.1317 308.367 37.7596C308.442 37.3875 308.516 36.9711 308.591 36.5103C308.668 36.0532 308.732 35.5853 308.782 35.1069L308.846 34.5115H310.207ZM324.886 33.7673V32.6828L329.67 25.1127H330.457V26.7926H329.925L326.31 32.5127V32.5977H332.753V33.7673H324.886ZM330.01 36V33.4377V32.9326V25.1127H331.265V36H330.01ZM337.276 23.7518V37.3609H334.129V36.319H336.085V24.7938H334.129V23.7518H337.276Z" fill="#294270"/>
<path d="M355.609 149.029C354.986 149.029 354.424 148.905 353.924 148.657C353.424 148.409 353.024 148.068 352.723 147.636C352.421 147.204 352.257 146.711 352.228 146.158H353.504C353.554 146.651 353.777 147.058 354.174 147.381C354.574 147.7 355.053 147.859 355.609 147.859C356.056 147.859 356.453 147.755 356.8 147.546C357.151 147.337 357.426 147.05 357.624 146.684C357.826 146.316 357.927 145.899 357.927 145.435C357.927 144.96 357.823 144.537 357.613 144.165C357.408 143.789 357.124 143.493 356.763 143.277C356.401 143.061 355.988 142.951 355.524 142.947C355.191 142.944 354.849 142.995 354.498 143.101C354.147 143.204 353.859 143.337 353.632 143.5L352.398 143.351L353.058 137.993H358.714V139.162H354.163L353.781 142.373H353.844C354.068 142.196 354.348 142.049 354.684 141.932C355.021 141.815 355.372 141.756 355.737 141.756C356.403 141.756 356.997 141.916 357.518 142.235C358.042 142.55 358.453 142.983 358.751 143.532C359.052 144.081 359.203 144.709 359.203 145.414C359.203 146.109 359.047 146.729 358.735 147.275C358.427 147.817 358.001 148.246 357.459 148.561C356.917 148.873 356.3 149.029 355.609 149.029ZM366.014 142.852V144.021H361.251V142.852H366.014ZM372.028 137.993V148.88H370.71V139.375H370.646L367.988 141.14V139.8L370.71 137.993H372.028ZM375.691 142.437V141.289H382.24V142.437H375.691ZM375.691 145.584V144.436H382.24V145.584H375.691ZM384.772 146.647V145.563L389.556 137.993H390.343V139.673H389.811L386.196 145.393V145.478H392.64V146.647H384.772ZM389.896 148.88V146.318V145.813V137.993H391.151V148.88H389.896Z" fill="#F0801A"/>
<path d="M22.2794 186.316V195.72H21.1407V187.51H21.0856L18.7898 189.035V187.878L21.1407 186.316H22.2794Z" fill="#737370"/>
<path d="M18.9734 168.77V167.944L22.0774 164.546C22.4416 164.148 22.7416 163.802 22.9773 163.508C23.213 163.211 23.3875 162.933 23.5008 162.672C23.6171 162.409 23.6752 162.134 23.6752 161.846C23.6752 161.515 23.5957 161.229 23.4365 160.987C23.2804 160.745 23.0661 160.559 22.7937 160.427C22.5212 160.295 22.2151 160.23 21.8753 160.23C21.5141 160.23 21.1988 160.305 20.9295 160.455C20.6631 160.602 20.4565 160.808 20.3096 161.074C20.1657 161.341 20.0938 161.653 20.0938 162.011H19.0102C19.0102 161.46 19.1372 160.976 19.3913 160.56C19.6453 160.144 19.9912 159.819 20.429 159.587C20.8698 159.354 21.3641 159.238 21.9121 159.238C22.4631 159.238 22.9513 159.354 23.3768 159.587C23.8023 159.819 24.1359 160.133 24.3778 160.528C24.6196 160.923 24.7405 161.362 24.7405 161.846C24.7405 162.192 24.6777 162.53 24.5522 162.861C24.4298 163.188 24.2155 163.554 23.9094 163.958C23.6064 164.359 23.1855 164.849 22.6467 165.427L20.5346 167.686V167.76H24.9058V168.77H18.9734Z" fill="#737370"/>
<path d="M22.1508 141.949C21.5447 141.949 21.0044 141.844 20.53 141.636C20.0586 141.428 19.6836 141.139 19.405 140.769C19.1295 140.395 18.9795 139.962 18.9551 139.469H20.1121C20.1366 139.772 20.2407 140.034 20.4244 140.254C20.608 140.472 20.8483 140.64 21.1453 140.759C21.4422 140.879 21.7713 140.938 22.1325 140.938C22.5365 140.938 22.8947 140.868 23.2069 140.727C23.5191 140.586 23.764 140.39 23.9416 140.139C24.1191 139.888 24.2079 139.598 24.2079 139.267C24.2079 138.921 24.1222 138.617 23.9507 138.353C23.7793 138.087 23.5283 137.879 23.1977 137.729C22.8671 137.579 22.4631 137.504 21.9855 137.504H21.2325V136.494H21.9855C22.359 136.494 22.6865 136.426 22.9681 136.292C23.2528 136.157 23.4747 135.967 23.6339 135.722C23.7962 135.477 23.8773 135.19 23.8773 134.859C23.8773 134.541 23.8069 134.264 23.6661 134.028C23.5252 133.792 23.3263 133.609 23.0691 133.477C22.8151 133.345 22.5151 133.28 22.1692 133.28C21.8447 133.28 21.5386 133.339 21.2509 133.459C20.9662 133.575 20.7335 133.745 20.5529 133.968C20.3723 134.189 20.2744 134.455 20.2591 134.767H19.1571C19.1755 134.274 19.3239 133.843 19.6025 133.472C19.881 133.099 20.2453 132.808 20.6953 132.6C21.1483 132.392 21.6457 132.288 22.1876 132.288C22.7692 132.288 23.2681 132.406 23.6844 132.641C24.1007 132.874 24.4206 133.182 24.6441 133.564C24.8675 133.947 24.9793 134.36 24.9793 134.804C24.9793 135.334 24.84 135.785 24.5614 136.159C24.2859 136.532 23.9109 136.791 23.4365 136.935V137.008C24.0303 137.106 24.4941 137.358 24.8277 137.766C25.1614 138.17 25.3282 138.67 25.3282 139.267C25.3282 139.778 25.1889 140.237 24.9104 140.645C24.6349 141.049 24.2584 141.367 23.7808 141.6C23.3033 141.832 22.76 141.949 22.1508 141.949Z" fill="#737370"/>
<path d="M18.753 112.952V112.015L22.8855 105.476H23.565V106.927H23.1059L19.9836 111.868V111.941H25.5486V112.952H18.753ZM23.1793 114.88V112.667V112.231V105.476H24.263V114.88H23.1793Z" fill="#737370"/>
<path d="M21.9121 88.0586C21.3733 88.0586 20.8881 87.9514 20.4565 87.7372C20.0249 87.5229 19.679 87.229 19.4188 86.8556C19.1586 86.4821 19.0163 86.0566 18.9918 85.5791H20.0938C20.1366 86.0046 20.3295 86.3566 20.6723 86.6352C21.0182 86.9107 21.4315 87.0484 21.9121 87.0484C22.2978 87.0484 22.6406 86.9581 22.9406 86.7775C23.2436 86.5969 23.4809 86.349 23.6523 86.0337C23.8268 85.7153 23.914 85.3556 23.914 84.9546C23.914 84.5444 23.8237 84.1786 23.6431 83.8572C23.4656 83.5328 23.2207 83.2772 22.9084 83.0904C22.5962 82.9037 22.2396 82.8088 21.8386 82.8058C21.5509 82.8027 21.2555 82.8471 20.9524 82.9389C20.6494 83.0277 20.3999 83.1425 20.204 83.2833L19.1387 83.1547L19.7081 78.5264H24.5936V79.5365H20.6631L20.3325 82.3099H20.3876C20.5805 82.1568 20.8223 82.0298 21.1131 81.9288C21.4039 81.8277 21.707 81.7772 22.0223 81.7772C22.5977 81.7772 23.1105 81.915 23.5605 82.1905C24.0135 82.4629 24.3686 82.8364 24.6257 83.3108C24.8859 83.7853 25.016 84.3271 25.016 84.9363C25.016 85.5362 24.8813 86.0719 24.6119 86.5433C24.3456 87.0117 23.9783 87.3821 23.5099 87.6545C23.0416 87.9239 22.509 88.0586 21.9121 88.0586Z" fill="#737370"/>
<path d="M22.0957 61.1086C21.71 61.1024 21.3243 61.029 20.9386 60.8882C20.5529 60.7474 20.2009 60.5101 19.8826 60.1765C19.5642 59.8397 19.3086 59.3852 19.1158 58.8128C18.9229 58.2373 18.8265 57.5149 18.8265 56.6455C18.8265 55.8129 18.9045 55.0752 19.0607 54.4323C19.2168 53.7865 19.4433 53.2431 19.7402 52.8023C20.0371 52.3585 20.3953 52.0217 20.8147 51.7922C21.2371 51.5626 21.7131 51.4478 22.2427 51.4478C22.7692 51.4478 23.2375 51.5534 23.6477 51.7646C24.0609 51.9728 24.3977 52.2636 24.6578 52.637C24.918 53.0105 25.0864 53.4406 25.1629 53.9273H24.0426C23.9385 53.5048 23.7365 53.1543 23.4365 52.8758C23.1365 52.5972 22.7386 52.4579 22.2427 52.4579C21.5141 52.4579 20.9402 52.7748 20.5208 53.4084C20.1045 54.0421 19.8948 54.9313 19.8917 56.0761H19.9652C20.1366 55.816 20.3402 55.594 20.5759 55.4104C20.8147 55.2236 21.0779 55.0798 21.3657 54.9787C21.6534 54.8777 21.958 54.8272 22.2794 54.8272C22.8181 54.8272 23.311 54.9619 23.7579 55.2313C24.2048 55.4976 24.563 55.8665 24.8323 56.3379C25.1017 56.8062 25.2364 57.3434 25.2364 57.9495C25.2364 58.5311 25.1063 59.0638 24.8461 59.5474C24.5859 60.028 24.2201 60.4106 23.7487 60.6953C23.2804 60.9769 22.7294 61.1147 22.0957 61.1086ZM22.0957 60.0984C22.4814 60.0984 22.8273 60.002 23.1334 59.8091C23.4426 59.6163 23.686 59.3576 23.8635 59.0331C24.0441 58.7087 24.1344 58.3475 24.1344 57.9495C24.1344 57.5608 24.0472 57.2072 23.8727 56.8889C23.7013 56.5674 23.464 56.3118 23.161 56.1221C22.861 55.9323 22.5182 55.8374 22.1325 55.8374C21.8417 55.8374 21.5707 55.8955 21.3197 56.0119C21.0687 56.1251 20.8483 56.2812 20.6585 56.4802C20.4718 56.6792 20.3249 56.9072 20.2178 57.1644C20.1106 57.4184 20.057 57.6863 20.057 57.9679C20.057 58.3413 20.1443 58.6903 20.3188 59.0148C20.4963 59.3393 20.7381 59.601 21.0442 59.7999C21.3534 59.9989 21.7039 60.0984 22.0957 60.0984Z" fill="#737370"/>
<path d="M22.0406 222.799C21.3488 222.799 20.7596 222.61 20.2729 222.234C19.7861 221.854 19.4142 221.305 19.1571 220.585C18.9 219.863 18.7714 218.991 18.7714 217.968C18.7714 216.952 18.9 216.084 19.1571 215.365C19.4173 214.642 19.7907 214.091 20.2774 213.712C20.7672 213.329 21.3549 213.138 22.0406 213.138C22.7263 213.138 23.3125 213.329 23.7992 213.712C24.289 214.091 24.6624 214.642 24.9196 215.365C25.1798 216.084 25.3099 216.952 25.3099 217.968C25.3099 218.991 25.1813 219.863 24.9242 220.585C24.667 221.305 24.2951 221.854 23.8084 222.234C23.3217 222.61 22.7324 222.799 22.0406 222.799ZM22.0406 221.788C22.7263 221.788 23.2589 221.458 23.6385 220.797C24.0181 220.135 24.2079 219.193 24.2079 217.968C24.2079 217.154 24.1206 216.461 23.9461 215.888C23.7747 215.316 23.5268 214.88 23.2023 214.58C22.8809 214.28 22.4937 214.13 22.0406 214.13C21.3611 214.13 20.83 214.465 20.4473 215.135C20.0647 215.802 19.8734 216.747 19.8734 217.968C19.8734 218.782 19.9591 219.474 20.1305 220.044C20.3019 220.613 20.5483 221.046 20.8698 221.343C21.1942 221.64 21.5845 221.788 22.0406 221.788Z" fill="#737370"/>
<path d="M38.26 39.64V229.6" stroke="#737370" stroke-miterlimit="10"/>
<path d="M30.66 84.81H47.13" stroke="#737370" stroke-miterlimit="10"/>
<path d="M30.66 111.61H47.13" stroke="#737370" stroke-miterlimit="10"/>
<path d="M30.66 138.42H47.13" stroke="#737370" stroke-miterlimit="10"/>
<path d="M30.66 165.23H47.13" stroke="#737370" stroke-miterlimit="10"/>
<path d="M30.66 192.03H47.13" stroke="#737370" stroke-miterlimit="10"/>
<path d="M30.66 58H47.13" stroke="#737370" stroke-miterlimit="10"/>
<path d="M93 58H81V221H93V58Z" fill="#294270"/>
<path d="M119.88 165.02H108.48V220.74H119.88V165.02Z" fill="#294270"/>
<path d="M147.04 191.61H135.64V220.74H147.04V191.61Z" fill="#294270"/>
<path d="M174.2 165.02H162.8V220.74H174.2V165.02Z" fill="#294270"/>
<path d="M201.36 139.69H189.96V220.74H201.36V139.69Z" fill="#294270"/>
<path d="M228.52 165.02H217.12V220.74H228.52V165.02Z" fill="#294270"/>
<path d="M255.67 139.69H244.27V220.74H255.67V139.69Z" fill="#294270"/>
<path d="M282.83 111.82H271.43V220.74H282.83V111.82Z" fill="#294270"/>
<path d="M309.99 85.23H298.59V220.74H309.99V85.23Z" fill="#294270"/>
<path d="M337.15 111.82H325.75V220.74H337.15V111.82Z" fill="#294270"/>
<path d="M362.48 220.11H29.4" stroke="#737370" stroke-miterlimit="10"/>
<path d="M149.93 232.67L141.19 228.93C141.082 228.881 140.964 228.855 140.845 228.855C140.726 228.855 140.608 228.881 140.5 228.93L131.77 232.67C131.613 232.737 131.479 232.848 131.385 232.99C131.29 233.133 131.24 233.299 131.24 233.47V243.47C131.237 243.641 131.287 243.809 131.381 243.952C131.476 244.095 131.611 244.206 131.77 244.27L140.5 248.02C140.721 248.11 140.969 248.11 141.19 248.02L149.93 244.27C150.088 244.204 150.223 244.093 150.317 243.951C150.411 243.808 150.461 243.641 150.46 243.47V233.47C150.459 233.3 150.408 233.133 150.314 232.991C150.22 232.849 150.086 232.738 149.93 232.67ZM139.93 245.88L132.93 242.88V234.79L139.93 237.79V245.88ZM140.81 236.27L134.29 233.47L140.81 230.68L147.33 233.47L140.81 236.27ZM148.67 242.88L141.67 245.88V237.8L148.67 234.8V242.88Z" fill="#F0801A"/>
<path d="M304.22 228.68C302.284 228.68 300.391 229.254 298.781 230.33C297.171 231.406 295.916 232.935 295.175 234.724C294.434 236.512 294.24 238.481 294.618 240.38C294.996 242.279 295.928 244.023 297.297 245.393C298.667 246.762 300.411 247.694 302.31 248.072C304.209 248.45 306.178 248.256 307.966 247.515C309.755 246.774 311.284 245.519 312.36 243.909C313.436 242.299 314.01 240.406 314.01 238.47C314.01 235.874 312.979 233.383 311.143 231.547C309.307 229.711 306.816 228.68 304.22 228.68ZM304.22 246.48C302.638 246.48 301.091 246.011 299.775 245.132C298.46 244.253 297.434 243.003 296.829 241.541C296.223 240.08 296.065 238.471 296.374 236.919C296.682 235.367 297.444 233.942 298.563 232.823C299.682 231.704 301.107 230.942 302.659 230.634C304.211 230.325 305.82 230.483 307.281 231.089C308.743 231.694 309.993 232.72 310.872 234.035C311.751 235.351 312.22 236.898 312.22 238.48C312.22 240.602 311.377 242.637 309.877 244.137C308.377 245.637 306.342 246.48 304.22 246.48Z" fill="#F0801A"/>
<path d="M305.1 237.58V234.87C306.1 234.87 306.88 235.48 306.88 236.2H308.66C308.598 235.316 308.189 234.493 307.522 233.91C306.855 233.327 305.984 233.032 305.1 233.09V231.31H303.32V233.09C302.878 233.034 302.429 233.073 302.003 233.203C301.577 233.334 301.183 233.554 300.849 233.849C300.514 234.144 300.246 234.506 300.063 234.912C299.879 235.319 299.785 235.759 299.785 236.205C299.785 236.651 299.879 237.091 300.063 237.498C300.246 237.904 300.514 238.266 300.849 238.561C301.183 238.856 301.577 239.076 302.003 239.207C302.429 239.337 302.878 239.376 303.32 239.32V241.99C302.32 241.99 301.54 241.38 301.54 240.65H299.76C299.824 241.534 300.234 242.356 300.9 242.94C301.566 243.524 302.436 243.822 303.32 243.77V245.55H305.1V243.77C305.542 243.826 305.991 243.787 306.417 243.657C306.843 243.526 307.237 243.306 307.571 243.011C307.906 242.716 308.174 242.354 308.357 241.948C308.541 241.541 308.635 241.101 308.635 240.655C308.635 240.209 308.541 239.769 308.357 239.362C308.174 238.956 307.906 238.594 307.571 238.299C307.237 238.004 306.843 237.784 306.417 237.653C305.991 237.523 305.542 237.484 305.1 237.54V237.58ZM303.32 237.58C302.32 237.58 301.54 236.97 301.54 236.24C301.54 235.51 302.36 234.91 303.32 234.91V237.58ZM305.1 242.03V239.36C306.1 239.36 306.88 239.97 306.88 240.69C306.88 241.41 306.1 242.03 305.1 242.03Z" fill="#F0801A"/>
<path d="M131.98 191.61H362.48" stroke="#F0801A" stroke-miterlimit="10"/>
<path d="M294.72 85.86H362.48" stroke="#F0801A" stroke-miterlimit="10"/>
</svg>
